<?xml version="1.0" encoding="utf-8"?>
<!-- Generator: Adobe Illustrator 11.0, SVG Export Plug-In . SVG Version: 6.0.0 Build 78)  -->
<!DOCTYPE svg PUBLIC "-//W3C//DTD SVG 1.0//EN"    "http://www.w3.org/TR/2001/REC-SVG-20010904/DTD/svg10.dtd" [
	<!ENTITY ns_flows "http://ns.adobe.com/Flows/1.0/">
	<!ENTITY ns_svg "http://www.w3.org/2000/svg">
	<!ENTITY ns_xlink "http://www.w3.org/1999/xlink">
]>
<svg  xmlns="&ns_svg;" xmlns:xlink="&ns_xlink;" xmlns:a="http://ns.adobe.com/AdobeSVGViewerExtensions/3.0/"
	 width="402.5" height="328.5" viewBox="0 0 202.5 328.5" style="overflow:visible;enable-background:new 0 0 202.5 328.5"
	 xml:space="preserve">
	<style type="text/css">
	<![CDATA[
		.st0{fill:#ADADAD;}
		.st1{fill:#151485;animation: fade 1s infinite;}
		.st2{fill:#D81687;}
		#lens{
		animation: spin 1.5s infinite;
		}
		@keyframes fade {
      0% {
          fill: #151485;
      }
      50% {
          fill: #a71c1c;
      }
      100% {
          fill: #151485;
      }
    }

		@keyframes spin {
      0% {
      transform: translate(0px, 0px);
      }
      33% {
      transform: translate(100px, -130px);
      }
      66% {
        transform: translate(-70px, -130px);
      }
      100% {
        transform: translate(0px, 0px);
      }
    }

	]]>
	</style>
		<g id="Layer_1">
			<g>
				<g>
					<path class="st1"  id="man" d="M93.5,129.9c0.7,0,1.4,0.1,2.1,0.1c32-0.1,57.9-29.2,57.8-65.1c-0.2-36-26.2-65.1-58.2-65
						c-0.3,0-0.6,0-0.8,0c-0.3,0-0.6,0-0.9,0c-32,0-57.9,29.1-57.9,65C35.6,100.8,61.5,129.9,93.5,129.9z M150.5,109.6
						c-10.9,21.9-31.8,36.9-56,37.1c-24.1-0.2-45.2-15.1-55.9-37.1C-16.7,149.5,3.7,249.4,3.7,249.4c0,6.4,5.4,11.6,12,11.6h78.1
						v0.1l79.9-0.2c6.6,0,12-5.2,12-11.6C185.7,249.3,205.8,149.3,150.5,109.6z"/>
				</g>
			</g>
			<g id="lens">
				<path class="st2" d="M126.2,168.8c-21.4-22.4-56.7-23.4-78.7-2.4c-22,21.1-22.5,56.3-1,78.7c19,19.8,48.8,22.9,70.7,8.7
					l71.5,74.6l13.8-13.2l-71.3-74.5C147.1,219.5,145.5,189,126.2,168.8z M118.6,240.6c-18.6,17.8-48.3,16.9-66.3-2
					c-18.1-18.9-17.7-48.6,0.9-66.4c18.6-17.8,48.3-16.9,66.3,2C137.5,193.1,137.2,222.9,118.6,240.6z"/>
				<path class="st0" d="M77.3,170.6c0,0,45.2-5.9,48.3,44C125.6,214.6,114.3,172.6,77.3,170.6z"/>
			</g>
		</g>
	</svg>
