<svg width="137" height="137" viewBox="0 0 137 137" fill="none" xmlns="http://www.w3.org/2000/svg">
<path d="M68.5 62.786C76.7029 65.2862 83.1247 71.7138 85.6193 79.9167C88.131 71.7138 94.5528 65.2919 102.75 62.7917C94.5528 60.2857 88.131 53.8695 85.6193 45.6667C83.1247 53.8638 76.7029 60.2857 68.5 62.786ZM114.172 62.7917C119.641 64.4642 123.917 68.7398 125.589 74.214C127.25 68.7398 131.537 64.4585 137 62.7917C131.537 61.1248 127.256 56.8436 125.583 51.375C123.911 56.8436 119.635 61.1248 114.172 62.7917ZM108.464 11.4167C105.969 19.6195 99.5419 26.0414 91.3505 28.5474C99.559 31.059 105.97 37.4752 108.481 45.6838C110.976 37.4752 117.403 31.0533 125.583 28.5474C117.403 26.0528 110.976 19.6195 108.464 11.4167ZM68.5 137C30.728 137 0 106.272 0 68.5C0 30.728 30.728 0 68.5 0C79.3116 0 89.2213 2.83704 99.1538 6.73013C82.3256 9.60713 45.6667 25.3735 45.6667 68.5C45.6667 111.05 79.4429 126.771 99.1538 130.27C90.5913 135.099 79.3116 137 68.5 137Z" fill="white"/>
</svg>
