<svg width="137" height="137" viewBox="0 0 137 137" fill="none" xmlns="http://www.w3.org/2000/svg">
<g clip-path="url(#clip0_25_39)">
<path d="M126.086 74.9276L137 68.5L126.086 62.0724C120.257 58.636 118.254 51.1695 121.587 45.2785L127.827 34.25L115.154 34.1358C108.39 34.0788 102.921 28.6102 102.864 21.8458L102.75 9.179L91.7215 15.4182C85.8362 18.7462 78.364 16.7483 74.9333 10.92L68.5 0L62.0667 10.92C58.6303 16.7483 51.1638 18.7519 45.2785 15.4182L34.25 9.179L34.1358 21.8458C34.0788 28.6102 28.6102 34.0788 21.8458 34.1358L9.17329 34.25L15.4125 45.2785C18.7462 51.1695 16.7425 58.636 10.9143 62.0724L0 68.5L10.9143 74.9276C16.7425 78.364 18.7462 85.8305 15.4125 91.7215L9.17329 102.75L21.8458 102.864C28.6102 102.921 34.0788 108.39 34.1358 115.154L34.25 127.821L45.2785 121.582C51.1638 118.254 58.636 120.252 62.0667 126.08L68.5 137L74.9333 126.08C78.3697 120.252 85.8362 118.248 91.7215 121.582L102.75 127.821L102.864 115.154C102.927 108.39 108.396 102.921 115.154 102.864L127.827 102.75L121.587 91.7215C118.254 85.8362 120.252 78.364 126.086 74.9276ZM68.3345 114.167C43.155 114.167 22.6678 93.6795 22.6678 68.5C22.6678 43.3205 43.1493 22.8333 68.3345 22.8333C93.5196 22.8333 114.001 43.3205 114.001 68.5C114.001 93.6795 93.5139 114.167 68.3345 114.167ZM102.75 68.5C102.75 87.4117 87.4117 102.75 68.5 102.75C49.5883 102.75 34.25 87.4117 34.25 68.5C34.25 49.5883 49.5883 34.25 68.5 34.25C87.4117 34.25 102.75 49.5883 102.75 68.5Z" fill="white"/>
</g>
<defs>
<clipPath id="clip0_25_39">
<rect width="137" height="137" fill="white"/>
</clipPath>
</defs>
</svg>
